# xmcd
#
# Track frame offsets:
#   150
#   13638
#   29706
#   46556
#   58336
#   76599
#   90830
#   109252
#   121485
#   140873
#   164992
#   183516
#   200402
#   216298
#   240623
#
# Disc length: 3433 seconds
#
# Revision: 0
# Processed by: cddbd v1.5.2PL0 Copyright (c) Steve Scherf et al.
# Submitted via: uFREEDB ActiveX Control 1.5
#
DISCID=d50d670f
DTITLE=Jads&Jadson - Jads&Jadson
DYEAR=1900
DGENRE=Country
TTITLE0=pagode mineiro
TTITLE1=com todos menos comigo
TTITLE2=amores vem e vão
TTITLE3=se não fosse essa viola
TTITLE4=minuto de fragilidade
TTITLE5=chegada da primavera
TTITLE6=cara na porta
TTITLE7=guerra de poder
TTITLE8=ando falando sozinho
TTITLE9=terra de violeiro
TTITLE10=tombos de amor
TTITLE11=diga que valeu
TTITLE12=com todos menos comigo - ao vivo
TTITLE13=coração idiota
TTITLE14=cara na porta - com vinheta
EXTD=
EXTT0=
EXTT1=
EXTT2=
EXTT3=
EXTT4=
EXTT5=
EXTT6=
EXTT7=
EXTT8=
EXTT9=
EXTT10=
EXTT11=
EXTT12=
EXTT13=
EXTT14=
PLAYORDER=
